<svg width="16" height="16" viewBox="0 0 16 16" fill="none" xmlns="http://www.w3.org/2000/svg">
<path d="M14.8313 15.75C13.0083 15.75 11.2073 15.3528 9.42812 14.5583C7.64896 13.7638 6.03021 12.637 4.57188 11.1781C3.11354 9.71921 1.98712 8.10046 1.19262 6.32188C0.398125 4.54329 0.000583333 2.74225 0 0.91875C0 0.65625 0.0875 0.4375 0.2625 0.2625C0.4375 0.0875 0.65625 0 0.91875 0H4.4625C4.66667 0 4.84896 0.0694166 5.00938 0.20825C5.16979 0.347083 5.26458 0.511 5.29375 0.7L5.8625 3.7625C5.89167 3.99583 5.88438 4.19271 5.84063 4.35313C5.79688 4.51354 5.71667 4.65208 5.6 4.76875L3.47812 6.9125C3.76979 7.45208 4.116 7.97329 4.51675 8.47613C4.9175 8.97896 5.35879 9.464 5.84063 9.93125C6.29271 10.3833 6.76667 10.8027 7.2625 11.1895C7.75833 11.5763 8.28333 11.9298 8.8375 12.25L10.8938 10.1937C11.025 10.0625 11.1965 9.96421 11.4082 9.89887C11.62 9.83354 11.8277 9.81517 12.0312 9.84375L15.05 10.4563C15.2542 10.5146 15.4219 10.6205 15.5531 10.7739C15.6844 10.9273 15.75 11.0985 15.75 11.2875V14.8313C15.75 15.0938 15.6625 15.3125 15.4875 15.4875C15.3125 15.6625 15.0938 15.75 14.8313 15.75ZM2.64688 5.25L4.09063 3.80625L3.71875 1.75H1.77188C1.84479 2.34792 1.94687 2.93854 2.07812 3.52188C2.20937 4.10521 2.39896 4.68125 2.64688 5.25ZM10.4781 13.0813C11.0469 13.3292 11.6267 13.526 12.2176 13.6719C12.8085 13.8177 13.4027 13.9125 14 13.9563V12.0312L11.9437 11.6156L10.4781 13.0813Z" fill="#E6E6E6"/>
</svg>
