<svg width="55" height="31" viewBox="0 0 55 31" fill="none" xmlns="http://www.w3.org/2000/svg">
<path d="M27.8499 27.3899C27.4598 27.0865 27.3818 26.7071 27.5378 26.0623L35.0275 0.837204C35.1446 0.344084 35.5737 0.00268555 36.1198 0.00268555H53.7518C54.454 0.00268555 54.7271 0.306147 54.7271 0.950998V3.5304C54.688 4.02352 54.532 4.47871 54.2589 4.85804L34.6765 29.9693C34.3644 30.4245 33.7012 30.5762 33.1941 30.2728L27.8499 27.3899ZM0.387623 27.3899C-0.00246429 27.0865 -0.0804787 26.7071 0.0755577 26.0623L7.56527 0.837204C7.6823 0.30615 8.18942 -0.0352459 8.73554 0.00268555H26.2896C26.9917 0.00268555 27.2648 0.306147 27.2648 0.950998V3.5304C27.2258 4.02352 27.0697 4.47871 26.7967 4.85804L7.29221 29.9693C6.98014 30.4245 6.31699 30.5762 5.80987 30.2349L0.387623 27.3899Z" fill="white"/>
</svg>
