<svg width="147" height="29" viewBox="0 0 147 29" fill="none" xmlns="http://www.w3.org/2000/svg">
<g clip-path="url(#clip0_253_150)">
<path d="M111.587 0C117.552 0.990264 119.96 10.1285 114.684 13.3998C114.073 13.779 111.914 14.1924 112.896 14.7007C113.448 14.9871 114.124 14.9951 114.873 15.5054C118.585 18.0385 118.301 24.3895 114.902 27.0659C114.408 27.4551 112.023 28.7782 111.589 28.7782H90.9708V20.0191C91.4113 19.8375 91.9147 20.3317 92.073 20.3317H99.4694C99.5648 20.3317 99.374 22.2093 99.4694 22.2093H107.18C108.065 22.2093 109.356 18.452 106.726 17.6573C105.151 17.1814 96.3781 17.3589 94.2631 17.5041C91.4275 17.6997 88.3464 18.4116 86.5643 20.8016C86.3897 21.0355 85.6204 22.2739 85.6204 22.3646V28.7782H77.4365V7.50866H85.3058V14.0775C91.4864 9.13624 99.8307 11.5544 107.115 10.8828C109.131 10.308 108.238 6.56882 107.182 6.56882H99.4714C99.376 6.56882 99.5668 8.44648 99.4714 8.44648H90.9729V0H111.591H111.587Z" fill="white"/>
<path d="M9.12775 0.625244V18.926C9.12775 19.2829 10.2949 20.7835 10.7211 21.0961C13.0837 22.8326 16.6885 22.4252 18.1195 19.7287C18.2738 19.4362 18.8868 17.8449 18.8868 17.6755V0.625244H28.0145V17.0483C28.0145 27.9956 16.1019 30.8474 7.3091 27.9291C4.26449 26.9187 0 23.2783 0 19.8638V0.625244H9.12775Z" fill="white"/>
<path d="M136.926 0H147L136.279 14.5292L147 28.7782H136.926C135.711 26.7734 134.132 24.684 132.644 22.8668C132.289 22.4332 131.266 20.9508 130.791 20.9549L124.807 28.7782H114.892L125.873 14.499L114.894 0H124.809L131.105 7.81522C132.989 5.18325 135.299 2.75096 136.929 0H136.926Z" fill="white"/>
<path d="M76.1759 19.0813H60.1227C59.9542 22.766 62.5462 23.9721 65.9278 23.4417C68.2985 23.0706 68.0976 20.3317 68.3066 20.3317H76.1759C76.6955 29.5244 63.2708 30.3695 57.2222 27.437C48.8028 23.357 50.2094 8.30535 60.4211 6.70802C69.6686 5.25993 77.1401 8.84384 76.1759 19.0813ZM67.992 15.328C68.1036 10.0963 60.1673 10.421 60.1227 15.328H67.992Z" fill="white"/>
<path d="M50.6781 13.4522H43.1234C43.0219 13.4522 43.0991 12.2643 42.1045 11.8065C41.0044 11.3003 36.5694 11.2156 37.5985 13.1457C38.1222 14.1259 45.9001 14.8721 47.8507 15.7958C51.5773 17.5625 52.3912 22.2476 50.0489 25.4947C46.1904 30.8393 28.5885 30.3109 28.9599 21.2735H36.5146C36.612 21.2735 36.8312 22.6611 37.2311 23.0644C38.3353 24.1798 43.71 24.2826 43.3163 22.1952C43.1803 21.4691 42.4191 21.3824 41.8021 21.1868C38.0958 20.0089 30.4315 20.2348 29.6074 15.1544C28.2881 7.00644 36.9043 6.03836 42.9611 6.57686C46.7323 6.91165 51.0536 9.14831 50.6781 13.4542V13.4522Z" fill="white"/>
</g>
<defs>
<clipPath id="clip0_253_150">
<rect width="147" height="29" fill="white"/>
</clipPath>
</defs>
</svg>
